<?xml version="1.0" encoding="UTF-8" standalone="no"?>
<svg
   xmlns:dc="http://purl.org/dc/elements/1.1/"
   xmlns:cc="http://creativecommons.org/ns#"
   xmlns:rdf="http://www.w3.org/1999/02/22-rdf-syntax-ns#"
   xmlns:svg="http://www.w3.org/2000/svg"
   xmlns="http://www.w3.org/2000/svg"
   xmlns:xlink="http://www.w3.org/1999/xlink"
   xmlns:sodipodi="http://sodipodi.sourceforge.net/DTD/sodipodi-0.dtd"
   xmlns:inkscape="http://www.inkscape.org/namespaces/inkscape"
   version="1.1"
   x="0px"
   y="0px"
   viewBox="400 200 1120 680"
   style="enable-background:new 0 0 1920 1080;"
   xml:space="preserve"
   id="svg162"
   sodipodi:docname="logo.svg"
   inkscape:version="1.0.2 (e86c870879, 2021-01-15)"><metadata
   id="metadata168"><rdf:RDF><cc:Work
       rdf:about=""><dc:format>image/svg+xml</dc:format><dc:type
         rdf:resource="http://purl.org/dc/dcmitype/StillImage" /></cc:Work></rdf:RDF></metadata><defs
   id="defs166"><rect
     x="437.24625"
     y="470.42666"
     width="851.75499"
     height="354.2358"
     id="rect196" /></defs><sodipodi:namedview
   pagecolor="#ffffff"
   bordercolor="#666666"
   borderopacity="1"
   objecttolerance="10"
   gridtolerance="10"
   guidetolerance="10"
   inkscape:pageopacity="0"
   inkscape:pageshadow="2"
   inkscape:window-width="1916"
   inkscape:window-height="1161"
   id="namedview164"
   showgrid="false"
   inkscape:snap-text-baseline="false"
   inkscape:zoom="1.3647059"
   inkscape:cx="465.10776"
   inkscape:cy="284.16859"
   inkscape:window-x="0"
   inkscape:window-y="18"
   inkscape:window-maximized="0"
   inkscape:current-layer="svg162" />
<style
   type="text/css"
   id="style111">
	.st0{display:none;}
	.st1{fill:#FFFFFF;}
	.st2{fill:none;}
	.st3{fill:url(#SVGID_1_);}
</style>
<g
   id="Layer_2"
   class="st0">
	<image
   xlink:href="BG.png"
   id="image113"
   height="1080"
   width="1920"
   style="display:inline;overflow:visible">
	</image>
</g>
<g
   id="Layer_1">
	<g
   id="g159">
		
		<g
   id="g128"
   style="fill:#ffffff">
			<g
   id="g126"
   style="fill:#ffffff">
				<g
   id="g124"
   style="fill:#ffffff">
					<path
   class="st1"
   d="m 1479.9,637.6 v 13.2 c 0,2.9 -2.3,5.2 -5.2,5.2 h -62.9 c 0,3.3 0.1,6.2 0.1,8.9 0,19.5 -0.8,35.4 -2.7,53.3 -0.3,2.7 -2.5,4.7 -5.1,4.7 h -13.6 c -1.4,0 -2.7,-0.6 -3.6,-1.6 -0.9,-1 -1.4,-2.4 -1.2,-3.8 1.9,-17.8 2.8,-33.5 2.8,-52.6 0,-2.8 0,-5.7 -0.1,-8.9 h -62.2 c -2.9,0 -5.2,-2.3 -5.2,-5.2 v -13.2 c 0,-2.9 2.3,-5.2 5.2,-5.2 h 61.3 c -1.3,-21.5 -3.9,-42.2 -8.1,-63.2 -0.2,-1.3 0.1,-2.6 0.9,-3.6 0.8,-1 2,-1.6 3.3,-1.6 h 14.7 c 2.3,0 4.2,1.6 4.7,3.9 4.1,21.7 6.7,42.8 8,64.5 h 63.7 c 2.8,0 5.2,2.4 5.2,5.2 z"
   id="path122"
   style="fill:#ffffff" />
				</g>
			</g>
		</g>
		<g
   id="g157">
			<g
   id="g155">
				<path
   class="st2"
   d="m 639.2,463.3 c 0,0 -0.1,0 -0.1,0 m -0.7,0.1 c -0.3,0 -0.6,-0.1 -0.9,-0.1 0.3,0.1 0.6,0.1 0.9,0.1 0.1,0 0.2,0 0.3,0 -0.1,0 -0.2,0 -0.3,0 z m 0,0 c -0.3,0 -0.6,-0.1 -0.9,-0.1 0.3,0.1 0.6,0.1 0.9,0.1 0.1,0 0.2,0 0.3,0 -0.1,0 -0.2,0 -0.3,0 z"
   id="path130" />
				<radialGradient
   id="SVGID_1_"
   cx="1381.5239"
   cy="538.896"
   r="760.12433"
   gradientUnits="userSpaceOnUse">
					<stop
   offset="7.086212e-03"
   style="stop-color:#FFFFFF"
   id="stop132" />
					<stop
   offset="3.009906e-02"
   style="stop-color:#CBFFFF"
   id="stop134" />
					<stop
   offset="5.700687e-02"
   style="stop-color:#96FFFF"
   id="stop136" />
					<stop
   offset="8.427694e-02"
   style="stop-color:#68FFFF"
   id="stop138" />
					<stop
   offset="0.1113"
   style="stop-color:#43FFFF"
   id="stop140" />
					<stop
   offset="0.1382"
   style="stop-color:#25FFFF"
   id="stop142" />
					<stop
   offset="0.1647"
   style="stop-color:#11FFFF"
   id="stop144" />
					<stop
   offset="0.1908"
   style="stop-color:#04FFFF"
   id="stop146" />
					<stop
   offset="0.2159"
   style="stop-color:#00FFFF"
   id="stop148" />
					<stop
   offset="1"
   style="stop-color:#0000FF;stop-opacity:0"
   id="stop150" />
				</radialGradient>
				<path
   class="st3"
   d="m 1394.3,532.9 c -32.5,-79.9 -87.4,-148 -158.8,-197 -73.1,-50.1 -158.8,-76.6 -247.8,-76.6 -147.2,0 -283.8,73.1 -365.3,195.6 -0.9,1.3 -1.1,3 -0.6,4.5 0.5,1.6 1.7,2.7 3.2,3.2 l 11.4,3.9 c 0.7,0.2 1.4,0.3 2,0.3 2.1,0 4.1,-1.1 5.3,-2.8 37.4,-55 88,-100.7 146.4,-132.3 60.3,-32.6 128.6,-49.9 197.5,-49.9 83.3,0 163.6,24.6 232.4,71 67.1,45.3 119.2,108.6 150.7,182.9 0.9,2.2 3.1,3.7 5.5,3.7 h 13.6 c 1.6,0 3.1,-0.8 3.9,-2.1 1,-1.3 1.2,-2.9 0.6,-4.4 z M 638.4,463.4 c -0.3,0 -0.6,-0.1 -0.9,-0.2 0.3,0.1 0.6,0.2 0.9,0.2 0.1,0 0.2,0 0.2,0 0,0 -0.1,0 -0.2,0 z m 735,74.2 c 0.3,0.2 0.6,0.4 0.9,0.5 -0.3,-0.2 -0.6,-0.3 -0.9,-0.5 z"
   id="path153" />
			</g>
		</g>
	</g>
</g>
<text
   xml:space="preserve"
   id="text194"
   style="font-style:normal;font-weight:normal;font-size:266.667px;line-height:1.25;font-family:sans-serif;white-space:pre;shape-inside:url(#rect196);fill:#ffffff;fill-opacity:1;stroke:none;"
   transform="matrix(1.1234831,0,0,1.1441518,-56.806242,-103.34393)"><tspan
     x="437.24609"
     y="717.04067"><tspan
       style="font-style:italic;font-variant:normal;font-weight:bold;font-stretch:normal;font-family:'GohuFont Nerd Font';-inkscape-font-specification:'GohuFont Nerd Font';fill:#ffffff">Simon</tspan></tspan></text></svg>
